<svg width="14" height="16" viewBox="0 0 14 16" fill="none" xmlns="http://www.w3.org/2000/svg">
<path d="M14 2.28572V3.71428C14 4.97322 10.8646 6 7 6C3.13541 6 0 4.97322 0 3.71428V2.28572C0 1.02678 3.13541 0 7 0C10.8646 0 14 1.02678 14 2.28572ZM14 5.5V8.71428C14 9.97322 10.8646 11 7 11C3.13541 11 0 9.97322 0 8.71428V5.5C1.50391 6.53572 4.2565 7.01788 7 7.01788C9.7435 7.01788 12.4961 6.53572 14 5.5ZM14 10.5V13.7143C14 14.9732 10.8646 16 7 16C3.13541 16 0 14.9732 0 13.7143V10.5C1.50391 11.5357 4.2565 12.0179 7 12.0179C9.7435 12.0179 12.4961 11.5357 14 10.5Z" fill="#0B8793"/>
</svg>
