<svg width="32" height="23" viewBox="0 0 32 23" fill="none" xmlns="http://www.w3.org/2000/svg">
<g clip-path="url(#clip0)">
<path d="M31.3397 8.71005C30.6191 8.21585 28.9677 8.03052 27.6767 8.27762C27.5267 7.0421 26.8361 5.96114 25.6351 5.00361L24.9446 4.50941L24.4641 5.21983C23.8637 6.14647 23.5635 7.44377 23.6535 8.67929C23.6835 9.1116 23.8336 9.8838 24.284 10.5633C23.8637 10.8104 22.993 11.1193 21.8521 11.1193H0.144585L0.0845852 11.3664C-0.125665 12.6018 -0.125665 16.4627 2.33633 19.4278C4.19783 21.6825 6.96008 22.8254 10.593 22.8254C18.4592 22.8254 24.284 19.0879 27.0162 12.3238C28.0971 12.3547 30.409 12.3238 31.58 10.0072C31.61 9.94545 31.67 9.8219 31.8801 9.3587L32.0002 9.1116L31.3397 8.71005ZM17.4985 0H14.196V3.08868H17.4985V0ZM17.4985 3.70644H14.196V6.79512H17.4985V3.70632V3.70644ZM13.5953 3.70644H10.2928V6.79512H13.5953V3.70632V3.70644ZM9.69221 3.70644H6.38959V6.79512H9.69221V3.70632V3.70644ZM5.78909 7.41288H2.48646V10.5016H5.78896V7.41276L5.78909 7.41288ZM9.69221 7.41288H6.38959V10.5016H9.69221V7.41276V7.41288ZM13.5953 7.41288H10.2928V10.5016H13.5953V7.41276V7.41288ZM17.4986 7.41288H14.1958V10.5016H17.4986V7.41276V7.41288ZM21.4017 7.41288H18.099V10.5016H21.4017V7.41276V7.41288Z" fill="#2396ED"/>
</g>
<defs>
<clipPath id="clip0">
<rect width="32" height="22.8571" fill="white"/>
</clipPath>
</defs>
</svg>
