<svg width="22" height="21" viewBox="0 0 22 21" fill="none" xmlns="http://www.w3.org/2000/svg">
<path d="M20.33 11.91C20.42 13.46 19.71 14.95 18.44 15.86L19.21 17.35C19.44 17.8 19.47 18.33 19.27 18.8C19.08 19.27 18.69 19.64 18.21 19.8L17.42 20.05C17.091 20.1608 16.7359 20.1675 16.403 20.069C16.0702 19.9706 15.7758 19.7719 15.56 19.5L13.44 17C12.55 16.85 11.71 16.47 11 15.9C10.5 16.05 10 16.13 9.5 16.13C8.62 16.13 7.74 15.86 7 15.34C6.47 15.5 5.93 15.57 5.38 15.56C4.59 15.57 3.81 15.41 3.08 15.11C2.37733 14.7965 1.77693 14.2918 1.34728 13.6535C0.91762 13.0152 0.676006 12.269 0.649996 11.5C0.569996 10.78 0.689996 10.05 0.999996 9.39001C0.709996 8.64001 0.679996 7.82001 0.929996 7.06001C1.3 6.11001 2 5.32001 2.87 4.82001C3.45 3.13001 5.08 2.00001 6.87 2.12001C8.47 0.62001 10.92 0.460011 12.7 1.75001C13.12 1.64001 13.56 1.58001 14 1.58001C15.36 1.55001 16.65 2.15001 17.5 3.22001C19.54 3.75001 21 5.57001 21.08 7.69001C21.13 8.80001 20.83 9.89001 20.22 10.82C20.29 11.18 20.33 11.54 20.33 11.91ZM15.33 10.5C15.9 10.57 16.35 11 16.35 11.57C16.35 11.8352 16.2446 12.0896 16.0571 12.2771C15.8696 12.4647 15.6152 12.57 15.35 12.57H14.72C14.4 13.47 13.84 14.26 13.1 14.86C13.35 14.95 13.61 15 13.87 15.07C19 15 18.4 11.87 18.4 11.82C18.3735 11.1331 18.0751 10.4849 17.5707 10.0179C17.0662 9.55095 16.3969 9.30351 15.71 9.33001C15.4448 9.33001 15.1904 9.22465 15.0029 9.03712C14.8154 8.84958 14.71 8.59523 14.71 8.33001C14.71 8.06479 14.8154 7.81044 15.0029 7.6229C15.1904 7.43537 15.4448 7.33001 15.71 7.33001C16.94 7.36001 18.12 7.82001 19.04 8.63001C19.09 8.34001 19.12 8.04001 19.12 7.74001C19.06 6.50001 18.5 5.42001 16.25 5.21001C15 2.25001 11.85 3.89001 11.85 4.81001C11.82 5.04001 12.06 5.53001 12.1 5.56001C12.3652 5.56001 12.6196 5.66537 12.8071 5.8529C12.9946 6.04044 13.1 6.29479 13.1 6.56001C13.1 7.11001 12.65 7.56001 12.1 7.56001C11.57 7.54001 11.07 7.34001 10.67 7.00001C10.19 7.31001 9.64 7.50001 9.07 7.56001C8.5 7.61001 8.03 7.21001 8 6.66001C7.98157 6.52938 7.99004 6.39637 8.02489 6.26913C8.05973 6.1419 8.12022 6.02313 8.20263 5.92012C8.28504 5.8171 8.38763 5.73202 8.50412 5.6701C8.6206 5.60817 8.74851 5.57071 8.88 5.56001C9.04 5.54001 9.82 5.42001 9.82 4.79001C9.82 4.13001 10.07 3.50001 10.5 3.00001C9.58 2.75001 8.59 3.08001 7.59 4.29001C5.75 4.00001 5 4.25001 4.45 6.20001C3.5 6.67001 3 7.00001 2.78 8.00001C3.86 7.78001 4.97 7.87001 6 8.25001C6.5 8.44001 6.78 9.00001 6.59 9.54001C6.4 10.06 5.82 10.32 5.3 10.13C4.57 9.81001 3.75 9.79001 3 10.07C2.68 10.34 2.68 10.9 2.68 11.34C2.68 12.08 3.05 12.77 3.68 13.17C4.21 13.44 4.8 13.58 5.39 13.57C5.24 13.31 5.11 13.04 5 12.76C4.92127 12.5031 4.94525 12.2256 5.06689 11.986C5.18853 11.7464 5.39835 11.5633 5.65222 11.4753C5.90609 11.3872 6.18423 11.401 6.42813 11.5138C6.67203 11.6266 6.86268 11.8295 6.96 12.08C7.36 13.22 8.38 14 9.58 14.13C10.95 14.06 12.17 13.25 12.77 12C13 10.62 14.11 10.5 15.33 10.5ZM17.33 17.97L16.71 16.67L16 16.83L17 18.08L17.33 17.97V17.97ZM12.68 9.36001C12.6887 9.10455 12.5992 8.85546 12.43 8.6639C12.2607 8.47234 12.0246 8.35287 11.77 8.33001C11.06 8.29001 10.37 8.53001 9.84 9.00001C9.27 9.58001 8.97 10.38 9 11.19C9 11.4552 9.10535 11.7096 9.29289 11.8971C9.48043 12.0847 9.73478 12.19 10 12.19C10.57 12.19 11 11.74 11 11.19C11 10.92 11.07 10.65 11.23 10.43C11.35 10.33 11.5 10.28 11.66 10.28C12.21 10.31 12.68 9.90001 12.68 9.36001Z" fill="url(#paint0_linear)"/>
<defs>
<linearGradient id="paint0_linear" x1="0.625916" y1="10.5088" x2="21.0854" y2="10.5088" gradientUnits="userSpaceOnUse">
<stop stop-color="#360033"/>
<stop offset="1" stop-color="#0B8793"/>
</linearGradient>
</defs>
</svg>
