<svg width="24" height="17" viewBox="0 0 24 17" fill="none" xmlns="http://www.w3.org/2000/svg">
<path d="M1.37765 5.23242L1.37497 5.23108C1.37497 5.23108 0 13.5553 0 14.7553C0 15.9781 0.900335 16.969 2.01117 16.969C2.46704 16.969 2.88268 16.796 3.21989 16.5144L10.0351 10.5225L1.37765 5.23242ZM22.6223 5.23242L22.625 5.23108C22.625 5.23108 24 13.5553 24 14.7553C24 15.9781 23.0997 16.969 21.9888 16.969C21.533 16.969 21.1173 16.796 20.7801 16.5144L13.9649 10.5225L22.6223 5.23242Z" fill="#31373D"/>
<path d="M17.3632 11.3966C20.5103 11.3966 23.0616 8.84542 23.0616 5.69832C23.0616 2.55123 20.5103 0 17.3632 0C14.2161 0 11.6649 2.55123 11.6649 5.69832C11.6649 8.84542 14.2161 11.3966 17.3632 11.3966Z" fill="#14171A"/>
<path d="M6.63692 11.3966C9.78402 11.3966 12.3352 8.84542 12.3352 5.69832C12.3352 2.55123 9.78402 0 6.63692 0C3.48983 0 0.938599 2.55123 0.938599 5.69832C0.938599 8.84542 3.48983 11.3966 6.63692 11.3966Z" fill="#14171A"/>
<path d="M6.63696 0H17.3632V11.3095H6.63696V0Z" fill="#14171A"/>
<path d="M8.71511 14.2458C10.5663 14.2458 12.0671 12.7451 12.0671 10.8939C12.0671 9.04262 10.5663 7.5419 8.71511 7.5419C6.86388 7.5419 5.36316 9.04262 5.36316 10.8939C5.36316 12.7451 6.86388 14.2458 8.71511 14.2458Z" fill="#14171A"/>
<path d="M15.2849 14.2458C17.1362 14.2458 18.6369 12.7451 18.6369 10.8939C18.6369 9.04262 17.1362 7.5419 15.2849 7.5419C13.4337 7.5419 11.933 9.04262 11.933 10.8939C11.933 12.7451 13.4337 14.2458 15.2849 14.2458Z" fill="#14171A"/>
<path d="M15.2849 12.905C16.3956 12.905 17.296 12.0046 17.296 10.8939C17.296 9.78312 16.3956 8.88269 15.2849 8.88269C14.1741 8.88269 13.2737 9.78312 13.2737 10.8939C13.2737 12.0046 14.1741 12.905 15.2849 12.905Z" fill="#67757F"/>
<path d="M8.71503 12.905C9.82577 12.905 10.7262 12.0046 10.7262 10.8939C10.7262 9.78312 9.82577 8.88269 8.71503 8.88269C7.60429 8.88269 6.70386 9.78312 6.70386 10.8939C6.70386 12.0046 7.60429 12.905 8.71503 12.905Z" fill="#67757F"/>
<path d="M17.2022 3.81117C17.7957 3.81117 18.2768 3.33004 18.2768 2.73653C18.2768 2.14303 17.7957 1.6619 17.2022 1.6619C16.6087 1.6619 16.1276 2.14303 16.1276 2.73653C16.1276 3.33004 16.6087 3.81117 17.2022 3.81117Z" fill="#FFCC4D"/>
<path d="M17.2022 8.15129C17.7957 8.15129 18.2768 7.67016 18.2768 7.07665C18.2768 6.48315 17.7957 6.00201 17.2022 6.00201C16.6087 6.00201 16.1276 6.48315 16.1276 7.07665C16.1276 7.67016 16.6087 8.15129 17.2022 8.15129Z" fill="#77B255"/>
<path d="M15.0322 5.98124C15.6257 5.98124 16.1068 5.50011 16.1068 4.90661C16.1068 4.3131 15.6257 3.83197 15.0322 3.83197C14.4387 3.83197 13.9575 4.3131 13.9575 4.90661C13.9575 5.50011 14.4387 5.98124 15.0322 5.98124Z" fill="#50A5E6"/>
<path d="M19.3722 5.98124C19.9658 5.98124 20.4469 5.50011 20.4469 4.90661C20.4469 4.3131 19.9658 3.83197 19.3722 3.83197C18.7787 3.83197 18.2976 4.3131 18.2976 4.90661C18.2976 5.50011 18.7787 5.98124 19.3722 5.98124Z" fill="#DD2E44"/>
<path d="M7.42327 3.66235V2.20894C7.42327 2.0219 7.27176 1.87039 7.08472 1.87039H6.04025C5.85321 1.87039 5.7017 2.0219 5.7017 2.20894V3.66235L6.56249 4.5238L7.42327 3.66235ZM5.70103 6.09587V7.54927C5.70103 7.73631 5.85254 7.88782 6.03958 7.88782H7.08405C7.27109 7.88782 7.4226 7.73631 7.4226 7.54927V6.09587L6.56182 5.23441L5.70103 6.09587ZM9.23332 4.01765H7.77992L6.91846 4.87911L7.77992 5.74056H9.23332C9.42036 5.74056 9.57187 5.58838 9.57187 5.40201V4.35687C9.57187 4.16983 9.42036 4.01765 9.23332 4.01765ZM5.34573 4.01765H3.89165C3.70461 4.01765 3.5531 4.16983 3.5531 4.3562V5.40067C3.5531 5.58771 3.70461 5.73922 3.89165 5.73922H5.34506L6.20651 4.87777L5.34573 4.01765Z" fill="#8899A6"/>
</svg>
