<svg width="32" height="29" viewBox="0 0 32 29" fill="none" xmlns="http://www.w3.org/2000/svg">
<g clip-path="url(#clip0)">
<path d="M25.1126 24.9774C25.1126 26.715 21.0876 28.1152 16.1251 28.1152C11.1626 28.1152 7.13757 26.7025 7.13757 24.9774C7.13757 23.2397 11.1626 21.8396 16.1251 21.8396C21.0876 21.8396 25.1126 23.2397 25.1126 24.9774Z" fill="#9EDCF2"/>
<path d="M25.1126 24.9774C25.1126 26.715 21.0876 28.1152 16.1251 28.1152C11.1626 28.1152 7.13757 26.7025 7.13757 24.9774C7.13757 23.2397 11.1626 21.8396 16.1251 21.8396C21.0876 21.8396 25.1126 23.2397 25.1126 24.9774Z" fill="#7DBCE7"/>
<path d="M5.86263 15.739L5.60013 16.6391C5.60013 16.6391 5.53763 16.9641 5.83763 17.0266C6.16263 17.0141 6.13763 16.7141 6.11263 16.6266L5.86263 15.739Z" fill="#9EDCF2"/>
<path d="M31.975 11.9494L32 11.8369C29.3625 11.3118 26.6625 11.2993 25.025 11.3744C25.2875 10.4118 25.375 9.28666 25.375 8.04904C25.375 6.26137 24.7 4.83623 23.625 3.76113C23.8125 3.14857 24.0625 1.78594 23.375 0.0482777C23.375 0.0482777 22.15 -0.339259 19.3625 1.52342C18.275 1.24839 17.1125 1.11088 15.95 1.11088C14.675 1.11088 13.3875 1.27339 12.175 1.59843C9.3 -0.364261 8.0375 0.0357766 8.0375 0.0357766C7.2125 2.09847 7.725 3.63612 7.875 4.01115C6.9 5.06125 6.3125 6.39888 6.3125 8.03654C6.3125 9.27416 6.45 10.3868 6.8 11.3494C5.15 11.2868 2.55 11.3118 0 11.8244L0.025 11.9369C2.575 11.4244 5.2 11.4119 6.8375 11.4744C6.9125 11.6744 7 11.8744 7.0875 12.0619C5.4625 12.1119 2.7 12.3244 0.05 13.0745L0.0875 13.187C2.7625 12.437 5.55 12.2369 7.1625 12.1869C8.1375 13.9871 10.0375 15.1622 13.4375 15.5247C12.95 15.8498 12.4625 16.3998 12.2625 17.3374C11.6 17.65 9.525 18.425 8.275 16.2748C8.275 16.2748 7.575 14.9997 6.2375 14.8997C6.2375 14.8997 4.9375 14.8747 6.15 15.7123C6.15 15.7123 7.0125 16.1248 7.6125 17.6625C7.6125 17.6625 8.4 20.2877 12.1625 19.4376V22.1254C12.1625 22.1254 12.0875 23.088 11.2 23.4005C11.2 23.4005 10.675 23.763 11.2375 23.9631C11.2375 23.9631 13.675 24.1631 13.675 22.1629V19.2126C13.675 19.2126 13.575 18.0375 14.15 17.6375V22.4879C14.15 22.4879 14.1125 23.6505 13.5125 24.0881C13.5125 24.0881 13.1125 24.8006 13.9875 24.6131C13.9875 24.6131 15.6625 24.3756 15.7375 22.4129L15.775 17.4999H16.175L16.2125 22.4129C16.2875 24.3631 17.9625 24.6131 17.9625 24.6131C18.8375 24.8131 18.4375 24.0881 18.4375 24.0881C17.8375 23.6505 17.8 22.4879 17.8 22.4879V17.675C18.375 18.125 18.275 19.2126 18.275 19.2126V22.1629C18.275 24.1631 20.7125 23.9631 20.7125 23.9631C21.275 23.763 20.75 23.4005 20.75 23.4005C19.875 23.0755 19.7875 22.1254 19.7875 22.1254V18.25C19.7875 16.7374 19.15 15.9373 18.525 15.5247C22.15 15.1622 23.8875 13.9996 24.6875 12.1744C26.275 12.2119 29.1375 12.412 31.8625 13.187L31.9 13.0745C29.1875 12.3119 26.35 12.1119 24.7375 12.0619C24.8125 11.8744 24.875 11.6869 24.9375 11.4869C26.6125 11.4244 29.325 11.4244 31.975 11.9494Z" fill="#010101"/>
<path d="M21.8251 7.96324C22.6001 8.67581 23.0626 9.52589 23.0626 10.4385C23.0626 14.7389 19.8626 14.8514 15.9126 14.8514C11.9626 14.8514 8.76257 14.2513 8.76257 10.4385C8.76257 9.52589 9.21257 8.67581 9.98757 7.97574C11.2751 6.80063 13.4501 7.42569 15.9126 7.42569C18.3751 7.42569 20.5376 6.78813 21.8251 7.96324Z" fill="#F5CCB3"/>
<path d="M13.5375 10.6635C13.5375 11.8511 12.875 12.8012 12.05 12.8012C11.225 12.8012 10.5625 11.8386 10.5625 10.6635C10.5625 9.47591 11.225 8.52582 12.05 8.52582C12.875 8.51332 13.5375 9.47591 13.5375 10.6635Z" fill="white"/>
<path d="M13.0624 10.6885C13.0624 11.4761 12.6124 12.1137 12.0749 12.1137C11.5249 12.1137 11.0874 11.4761 11.0874 10.6885C11.0874 9.90096 11.5374 9.2634 12.0749 9.2634C12.6124 9.2634 13.0624 9.90096 13.0624 10.6885Z" fill="#AF5C51"/>
<path d="M21.5249 10.6635C21.5249 11.8511 20.8624 12.8012 20.0374 12.8012C19.2124 12.8012 18.5499 11.8386 18.5499 10.6635C18.5499 9.47591 19.2124 8.52582 20.0374 8.52582C20.8499 8.51332 21.5249 9.47591 21.5249 10.6635Z" fill="white"/>
<path d="M21.0375 10.6885C21.0375 11.4761 20.5875 12.1137 20.05 12.1137C19.5 12.1137 19.0625 11.4761 19.0625 10.6885C19.0625 9.90096 19.5125 9.2634 20.05 9.2634C20.6 9.2634 21.0375 9.90096 21.0375 10.6885Z" fill="#AF5C51"/>
<path d="M16.3125 12.5637C16.3125 12.7637 16.15 12.9387 15.9375 12.9387C15.7375 12.9387 15.5625 12.7762 15.5625 12.5637C15.5625 12.3512 15.725 12.1887 15.9375 12.1887C16.1375 12.1887 16.3125 12.3512 16.3125 12.5637Z" fill="#AF5C51"/>
<path d="M15.075 13.5013C15.05 13.4388 15.0875 13.3763 15.15 13.3513C15.2125 13.3263 15.275 13.3638 15.3 13.4263C15.4 13.7013 15.65 13.8763 15.9375 13.8763C16.225 13.8763 16.475 13.6888 16.575 13.4263C16.6 13.3638 16.6625 13.3263 16.725 13.3513C16.7875 13.3763 16.825 13.4388 16.8 13.5013C16.675 13.8638 16.325 14.1139 15.9375 14.1139C15.55 14.1139 15.2 13.8638 15.075 13.5013Z" fill="#AF5C51"/>
<path d="M6.8126 15.2014C6.8126 15.3015 6.7001 15.3765 6.5501 15.3765C6.4126 15.3765 6.2876 15.3015 6.2876 15.2014C6.2876 15.1014 6.4001 15.0264 6.5501 15.0264C6.7001 15.0264 6.8126 15.1014 6.8126 15.2014Z" fill="#C4E5D9"/>
<path d="M7.53757 15.6015C7.53757 15.7015 7.42507 15.7765 7.27507 15.7765C7.13757 15.7765 7.01257 15.7015 7.01257 15.6015C7.01257 15.5015 7.12507 15.4265 7.27507 15.4265C7.42507 15.4265 7.53757 15.5015 7.53757 15.6015Z" fill="#C4E5D9"/>
<path d="M7.97507 16.1265C7.97507 16.2266 7.86257 16.3016 7.71257 16.3016C7.57507 16.3016 7.45007 16.2266 7.45007 16.1265C7.45007 16.0265 7.56257 15.9515 7.71257 15.9515C7.86257 15.939 7.97507 16.0265 7.97507 16.1265Z" fill="#C4E5D9"/>
<path d="M8.37511 16.7266C8.37511 16.8266 8.26261 16.9016 8.1126 16.9016C7.9751 16.9016 7.8501 16.8266 7.8501 16.7266C7.8501 16.6266 7.9626 16.5516 8.1126 16.5516C8.26261 16.5391 8.37511 16.6266 8.37511 16.7266Z" fill="#C4E5D9"/>
<path d="M8.8126 17.2766C8.8126 17.3766 8.7001 17.4517 8.5501 17.4517C8.4126 17.4517 8.2876 17.3766 8.2876 17.2766C8.2876 17.1766 8.4001 17.1016 8.5501 17.1016C8.7001 17.1016 8.8126 17.1766 8.8126 17.2766Z" fill="#C4E5D9"/>
<path d="M9.41257 17.7642C9.41257 17.8642 9.30007 17.9392 9.15007 17.9392C9.01257 17.9392 8.88757 17.8642 8.88757 17.7642C8.88757 17.6642 9.00007 17.5892 9.15007 17.5892C9.30007 17.5767 9.41257 17.6642 9.41257 17.7642Z" fill="#C4E5D9"/>
<path d="M10.2501 18.0767C10.2501 18.1767 10.1376 18.2517 9.9876 18.2517C9.8501 18.2517 9.7251 18.1767 9.7251 18.0767C9.7251 17.9767 9.8376 17.9017 9.9876 17.9017C10.1376 17.9017 10.2501 17.9767 10.2501 18.0767Z" fill="#C4E5D9"/>
<path d="M11.0875 18.0767C11.0875 18.1767 10.975 18.2517 10.825 18.2517C10.6875 18.2517 10.5625 18.1767 10.5625 18.0767C10.5625 17.9767 10.675 17.9017 10.825 17.9017C10.975 17.9017 11.0875 17.9767 11.0875 18.0767Z" fill="#C4E5D9"/>
<path d="M11.9376 17.9392C11.9376 18.0392 11.8251 18.1142 11.6751 18.1142C11.5376 18.1142 11.4126 18.0392 11.4126 17.9392C11.4126 17.8392 11.5251 17.7642 11.6751 17.7642C11.8126 17.7642 11.9376 17.8392 11.9376 17.9392Z" fill="#C4E5D9"/>
</g>
<defs>
<clipPath id="clip0">
<rect width="32" height="28.0935" fill="white"/>
</clipPath>
</defs>
</svg>
