<svg width="24" height="18" viewBox="0 0 24 18" fill="none" xmlns="http://www.w3.org/2000/svg">
<path d="M0 14.6667C0 16.1393 1.194 17.3333 2.66667 17.3333H21.3333C22.806 17.3333 24 16.1393 24 14.6667V12H0V14.6667Z" fill="#138808"/>
<path d="M0 5.33334H24V12H0V5.33334Z" fill="#EEEEEE"/>
<path d="M24 5.33333V2.66667C24 1.194 22.806 0 21.3333 0H2.66667C1.194 0 0 1.194 0 2.66667V5.33333H24Z" fill="#FF9933"/>
<path d="M12 11.3333C13.4728 11.3333 14.6667 10.1394 14.6667 8.66667C14.6667 7.19391 13.4728 6 12 6C10.5273 6 9.33337 7.19391 9.33337 8.66667C9.33337 10.1394 10.5273 11.3333 12 11.3333Z" fill="#000080"/>
<path d="M12 10.6667C13.1046 10.6667 14 9.77123 14 8.66666C14 7.56209 13.1046 6.66666 12 6.66666C10.8954 6.66666 10 7.56209 10 8.66666C10 9.77123 10.8954 10.6667 12 10.6667Z" fill="#EEEEEE"/>
<path d="M12 6.66666L12.0973 8.17599L12.7647 6.81932L12.278 8.25066L13.414 7.25199L12.416 8.38866L13.8473 7.90132L12.4907 8.56932L14 8.66666L12.4907 8.76399L13.8473 9.43132L12.416 8.94466L13.414 10.0807L12.278 9.08266L12.7647 10.514L12.0973 9.15732L12 10.6667L11.9027 9.15732L11.2347 10.514L11.722 9.08266L10.5853 10.0807L11.584 8.94466L10.1527 9.43132L11.5093 8.76399L10 8.66666L11.5093 8.56932L10.1527 7.90132L11.584 8.38866L10.5853 7.25199L11.722 8.25066L11.2347 6.81932L11.9027 8.17599L12 6.66666Z" fill="#6666B3"/>
<path d="M12 9.33333C12.3682 9.33333 12.6667 9.03486 12.6667 8.66667C12.6667 8.29848 12.3682 8 12 8C11.6319 8 11.3334 8.29848 11.3334 8.66667C11.3334 9.03486 11.6319 9.33333 12 9.33333Z" fill="#000080"/>
</svg>
