<svg width="24" height="24" viewBox="0 0 24 24" fill="none" xmlns="http://www.w3.org/2000/svg">
<g clip-path="url(#clip0)">
<path d="M22.1103 0H1.72489C0.750674 0 -0.0407715 0.772062 -0.0407715 1.72431V22.1954C-0.0407715 23.1482 0.750674 23.9215 1.72489 23.9215H22.1101C23.086 23.9215 23.8811 23.1482 23.8811 22.1954V1.72412C23.8811 0.772061 23.086 0 22.1103 0Z" fill="#006087"/>
<path d="M5.28062 3.29337C6.41526 3.29337 7.33686 4.21515 7.33686 5.34998C7.33686 6.48555 6.41526 7.4077 5.28062 7.4077C4.14376 7.4077 3.22327 6.48555 3.22327 5.34998C3.22327 4.21515 4.14376 3.29337 5.28062 3.29337ZM3.50591 8.96826H7.05404V20.3843H3.50591V8.96826Z" fill="white"/>
<path d="M9.2793 8.96824H12.6829V10.5279H12.7301C13.2037 9.63064 14.361 8.68411 16.0872 8.68411C19.68 8.68411 20.3433 11.0485 20.3433 14.1223V20.3843H16.7978V14.8327C16.7978 13.5081 16.7734 11.8054 14.954 11.8054C13.1075 11.8054 12.8248 13.2476 12.8248 14.7367V20.3841H9.2793V8.96842" fill="white"/>
</g>
<defs>
<clipPath id="clip0">
<rect width="24" height="24" fill="white"/>
</clipPath>
</defs>
</svg>
