<svg width="80" height="80" viewBox="0 0 80 80" fill="none" xmlns="http://www.w3.org/2000/svg">
<circle cx="40" cy="40" r="40" fill="#5DD9C1"/>
<path d="M20.4003 23.688C20.4003 20.936 20.8803 18.472 21.8403 16.296C22.8643 14.056 24.2723 12.2 26.0643 10.728C27.8563 9.25599 29.9683 8.168 32.4003 7.464C34.8323 6.696 37.4883 6.344 40.3683 6.408C43.3763 6.536 46.0643 7.112 48.4323 8.136C50.8003 9.096 52.6563 10.216 54.0003 11.496C54.4483 11.88 54.9283 12.424 55.4403 13.128C56.0163 13.832 56.4643 14.568 56.7843 15.336C57.1683 16.104 57.3603 16.84 57.3603 17.544C57.4243 18.248 57.1683 18.792 56.5923 19.176C56.2083 19.496 55.6963 19.656 55.0563 19.656C54.4803 19.656 53.8723 19.592 53.2323 19.464C52.5923 19.272 51.9843 19.048 51.4083 18.792C50.8323 18.472 50.3843 18.184 50.0643 17.928C48.7203 16.84 47.1203 15.976 45.2643 15.336C43.4723 14.632 41.8403 14.248 40.3683 14.184C38.4483 14.12 36.7523 14.312 35.2803 14.76C33.8083 15.144 32.5603 15.72 31.5363 16.488C30.5763 17.256 29.8403 18.152 29.3282 19.176C28.8163 20.136 28.5603 21.128 28.5603 22.152C28.5603 23.944 29.2643 25.512 30.6723 26.856C32.0803 28.136 33.6163 29.16 35.2803 29.928C37.0723 30.696 38.9283 31.496 40.8483 32.328C42.8323 33.096 44.7843 33.96 46.7043 34.92C48.6243 35.88 50.4483 36.936 52.1763 38.088C53.9043 39.24 55.4083 40.584 56.6883 42.12C58.0323 43.592 59.0883 45.32 59.8563 47.304C60.6243 49.224 61.0083 51.432 61.0083 53.928C61.0083 55.976 60.5603 57.992 59.6643 59.976C58.7683 61.896 57.4883 63.656 55.8243 65.256C54.1603 66.856 52.1123 68.168 49.6803 69.192C47.3123 70.216 44.6243 70.76 41.6163 70.824C39.3763 70.888 37.0403 70.664 34.6083 70.152C32.1763 69.64 29.9363 68.808 27.8883 67.656C25.8403 66.504 24.0483 65.032 22.5123 63.24C21.0403 61.384 20.1123 59.144 19.7283 56.52C19.6003 55.56 19.6323 54.664 19.8242 53.832C20.0163 53 20.3043 52.296 20.6883 51.72C21.0723 51.08 21.4883 50.6 21.9363 50.28C22.4483 49.896 22.9283 49.704 23.3763 49.704C23.8243 49.704 24.2723 49.96 24.7203 50.472C25.1683 50.92 25.5523 51.464 25.8723 52.104C26.1923 52.68 26.4483 53.256 26.6403 53.832C26.8963 54.408 27.0883 54.824 27.2163 55.08C27.8563 56.552 28.7203 57.8 29.8083 58.824C30.8963 59.848 32.0483 60.68 33.2643 61.32C34.5443 61.96 35.8563 62.44 37.2003 62.76C38.5443 63.016 39.7603 63.112 40.8483 63.048C42.3203 62.984 43.7283 62.728 45.0723 62.28C46.4163 61.832 47.6003 61.224 48.6243 60.456C49.6483 59.624 50.4483 58.632 51.0243 57.48C51.6643 56.264 51.9843 54.92 51.9843 53.448C51.9843 51.848 51.3443 50.28 50.0643 48.744C48.8483 47.144 47.2803 45.672 45.3603 44.328C43.5043 42.984 41.4243 41.768 39.1203 40.68C36.8803 39.528 34.7363 38.568 32.6883 37.8C29.1043 36.392 26.1603 34.472 23.8563 32.04C21.5523 29.544 20.4003 26.76 20.4003 23.688Z" fill="black"/>
<path d="M35.3684 22L37.3253 24.2534C37.6519 24.6295 37.6519 25.1887 37.3253 25.5648L35.3684 27.8182M44.6316 22L42.6747 24.2534C42.3481 24.6295 42.3481 25.1887 42.6747 25.5648L44.6316 27.8182M32 51.0909C33.2926 51.8351 34.0271 52.2581 35.3003 52.9911C35.3454 53.017 35.393 53.0397 35.4415 53.0584C36.325 53.3975 36.8636 53.6042 37.7216 53.9336C37.836 53.9775 37.9576 54 38.0801 54H41.9199C42.0424 54 42.164 53.9775 42.2784 53.9336C43.1364 53.6042 43.675 53.3975 44.5585 53.0584C44.607 53.0397 44.6546 53.017 44.6997 52.9911C45.9729 52.2581 46.7074 51.8351 48 51.0909" stroke="black" stroke-width="4"/>
</svg>
