<svg width="80" height="80" viewBox="0 0 80 80" fill="none" xmlns="http://www.w3.org/2000/svg">
<circle cx="40" cy="40" r="39.5" fill="#5DD9C1" stroke="black"/>
<path d="M20.4003 23.688C20.4003 20.936 20.8803 18.472 21.8403 16.296C22.8643 14.056 24.2723 12.2 26.0643 10.728C27.8563 9.25599 29.9683 8.168 32.4003 7.464C34.8323 6.696 37.4883 6.344 40.3683 6.408C43.3763 6.536 46.0643 7.112 48.4323 8.136C50.8003 9.096 52.6563 10.216 54.0003 11.496C54.4483 11.88 54.9283 12.424 55.4403 13.128C56.0163 13.832 56.4643 14.568 56.7843 15.336C57.1683 16.104 57.3603 16.84 57.3603 17.544C57.4243 18.248 57.1683 18.792 56.5923 19.176C56.2083 19.496 55.6963 19.656 55.0563 19.656C54.4803 19.656 53.8723 19.592 53.2323 19.464C52.5923 19.272 51.9843 19.048 51.4083 18.792C50.8323 18.472 50.3843 18.184 50.0643 17.928C48.7203 16.84 47.1203 15.976 45.2643 15.336C43.4723 14.632 41.8403 14.248 40.3683 14.184C38.4483 14.12 36.7523 14.312 35.2803 14.76C33.8083 15.144 32.5603 15.72 31.5363 16.488C30.5763 17.256 29.8403 18.152 29.3282 19.176C28.8163 20.136 28.5603 21.128 28.5603 22.152C28.5603 23.944 29.2643 25.512 30.6723 26.856C32.0803 28.136 33.6163 29.16 35.2803 29.928C37.0723 30.696 38.9283 31.496 40.8483 32.328C42.8323 33.096 44.7843 33.96 46.7043 34.92C48.6243 35.88 50.4483 36.936 52.1763 38.088C53.9043 39.24 55.4083 40.584 56.6883 42.12C58.0323 43.592 59.0883 45.32 59.8563 47.304C60.6243 49.224 61.0083 51.432 61.0083 53.928C61.0083 55.976 60.5603 57.992 59.6643 59.976C58.7683 61.896 57.4883 63.656 55.8243 65.256C54.1603 66.856 52.1123 68.168 49.6803 69.192C47.3123 70.216 44.6243 70.76 41.6163 70.824C39.3763 70.888 37.0403 70.664 34.6083 70.152C32.1763 69.64 29.9363 68.808 27.8883 67.656C25.8403 66.504 24.0483 65.032 22.5123 63.24C21.0403 61.384 20.1123 59.144 19.7283 56.52C19.6003 55.56 19.6323 54.664 19.8242 53.832C20.0163 53 20.3043 52.296 20.6883 51.72C21.0723 51.08 21.4883 50.6 21.9363 50.28C22.4483 49.896 22.9283 49.704 23.3763 49.704C23.8243 49.704 24.2723 49.96 24.7203 50.472C25.1683 50.92 25.5523 51.464 25.8723 52.104C26.1923 52.68 26.4483 53.256 26.6403 53.832C26.8963 54.408 27.0883 54.824 27.2163 55.08C27.8563 56.552 28.7203 57.8 29.8083 58.824C30.8963 59.848 32.0483 60.68 33.2643 61.32C34.5443 61.96 35.8563 62.44 37.2003 62.76C38.5443 63.016 39.7603 63.112 40.8483 63.048C42.3203 62.984 43.7283 62.728 45.0723 62.28C46.4163 61.832 47.6003 61.224 48.6243 60.456C49.6483 59.624 50.4483 58.632 51.0243 57.48C51.6643 56.264 51.9843 54.92 51.9843 53.448C51.9843 51.848 51.3443 50.28 50.0643 48.744C48.8483 47.144 47.2803 45.672 45.3603 44.328C43.5043 42.984 41.4243 41.768 39.1203 40.68C36.8803 39.528 34.7363 38.568 32.6883 37.8C29.1043 36.392 26.1603 34.472 23.8563 32.04C21.5523 29.544 20.4003 26.76 20.4003 23.688Z" fill="black"/>
<path d="M21.8403 16.296L20.9307 15.8802L20.9253 15.8924L21.8403 16.296ZM26.0643 10.728L26.699 11.5007L26.699 11.5007L26.0643 10.728ZM32.4003 7.464L32.6783 8.42456L32.6899 8.42121L32.7014 8.41758L32.4003 7.464ZM40.3683 6.408L40.4108 5.4089L40.4006 5.40847L40.3905 5.40825L40.3683 6.408ZM48.4323 8.136L48.0353 9.05386L48.0459 9.05842L48.0565 9.06274L48.4323 8.136ZM54.0003 11.496L53.3106 12.2201L53.3296 12.2382L53.3495 12.2553L54.0003 11.496ZM55.4403 13.128L54.6315 13.7162L54.6483 13.7392L54.6663 13.7612L55.4403 13.128ZM56.7843 15.336L55.8612 15.7206L55.8744 15.7524L55.8898 15.7832L56.7843 15.336ZM57.3603 17.544H56.3603V17.5894L56.3644 17.6345L57.3603 17.544ZM56.5923 19.176L56.0376 18.3439L55.9931 18.3736L55.9521 18.4078L56.5923 19.176ZM53.2323 19.464L52.9449 20.4218L52.99 20.4353L53.0361 20.4446L53.2323 19.464ZM51.4083 18.792L50.9226 19.6662L50.9615 19.6878L51.0021 19.7058L51.4083 18.792ZM50.0643 17.928L49.435 18.7053L49.4396 18.7089L50.0643 17.928ZM45.2643 15.336L44.8986 16.2667L44.9183 16.2745L44.9383 16.2814L45.2643 15.336ZM40.3683 14.184L40.4117 13.1849L40.4016 13.1846L40.3683 14.184ZM35.2803 14.76L35.5327 15.7276L35.5522 15.7225L35.5714 15.7167L35.2803 14.76ZM31.5363 16.488L30.9363 15.688L30.9238 15.6974L30.9116 15.7071L31.5363 16.488ZM29.3282 19.176L30.2106 19.6466L30.2168 19.635L30.2227 19.6232L29.3282 19.176ZM30.6723 26.856L29.9818 27.5794L29.9906 27.5878L29.9996 27.5959L30.6723 26.856ZM35.2803 29.928L34.8612 30.836L34.8737 30.8417L34.8863 30.8471L35.2803 29.928ZM40.8483 32.328L40.4506 33.2456L40.4688 33.2534L40.4873 33.2606L40.8483 32.328ZM46.7043 34.92L47.1515 34.0256L47.1515 34.0256L46.7043 34.92ZM52.1763 38.088L52.731 37.2559L52.731 37.2559L52.1763 38.088ZM56.6883 42.12L55.92 42.7602L55.9345 42.7776L55.9498 42.7943L56.6883 42.12ZM59.8563 47.304L58.9236 47.665L58.9278 47.6754L59.8563 47.304ZM59.6643 59.976L60.5705 60.3989L60.5756 60.3876L59.6643 59.976ZM55.8243 65.256L56.5174 65.9768L56.5174 65.9768L55.8243 65.256ZM49.6803 69.192L49.2922 68.2703L49.2833 68.2741L49.6803 69.192ZM41.6163 70.824L41.595 69.8242L41.5877 69.8244L41.6163 70.824ZM34.6083 70.152L34.8143 69.1735L34.8143 69.1735L34.6083 70.152ZM27.8883 67.656L28.3785 66.7844L28.3785 66.7844L27.8883 67.656ZM22.5123 63.24L21.7288 63.8614L21.7406 63.8763L21.753 63.8908L22.5123 63.24ZM19.7283 56.52L18.7369 56.6522L18.7388 56.6648L19.7283 56.52ZM19.8242 53.832L18.8499 53.6071L18.8499 53.6071L19.8242 53.832ZM20.6883 51.72L21.5203 52.2747L21.5335 52.2549L21.5457 52.2345L20.6883 51.72ZM21.9363 50.28L22.5175 51.0937L22.5269 51.087L22.5363 51.08L21.9363 50.28ZM24.7203 50.472L23.9677 51.1305L23.9896 51.1556L24.0131 51.1791L24.7203 50.472ZM25.8723 52.104L24.9778 52.5512L24.9875 52.5706L24.9981 52.5896L25.8723 52.104ZM26.6403 53.832L25.6916 54.1482L25.7068 54.194L25.7264 54.2381L26.6403 53.832ZM27.2163 55.08L28.1333 54.6813L28.1226 54.6567L28.1107 54.6328L27.2163 55.08ZM33.2643 61.32L32.7985 62.2049L32.8077 62.2098L32.817 62.2144L33.2643 61.32ZM37.2003 62.76L36.9686 63.7328L36.9908 63.7381L37.0131 63.7423L37.2003 62.76ZM40.8483 63.048L40.8048 62.0489L40.7972 62.0493L40.7895 62.0497L40.8483 63.048ZM45.0723 62.28L45.3885 63.2287L45.3885 63.2287L45.0723 62.28ZM48.6243 60.456L49.2243 61.256L49.2398 61.2444L49.2548 61.2321L48.6243 60.456ZM51.0243 57.48L50.1393 57.0143L50.1345 57.0235L50.1298 57.0328L51.0243 57.48ZM50.0643 48.744L49.2681 49.3491L49.2817 49.3669L49.296 49.3842L50.0643 48.744ZM45.3603 44.328L44.7737 45.1379L44.7802 45.1426L44.7868 45.1472L45.3603 44.328ZM39.1203 40.68L38.6629 41.5693L38.6779 41.577L38.6932 41.5842L39.1203 40.68ZM32.6883 37.8L32.3226 38.7307L32.3298 38.7336L32.3371 38.7363L32.6883 37.8ZM23.8563 32.04L23.1214 32.7183L23.1303 32.7277L23.8563 32.04ZM21.4003 23.688C21.4003 21.0533 21.8594 18.73 22.7552 16.6996L20.9253 15.8924C19.9011 18.214 19.4003 20.8187 19.4003 23.688H21.4003ZM22.7497 16.7118C23.7145 14.6013 25.0318 12.8702 26.699 11.5007L25.4295 9.95527C23.5127 11.5298 22.014 13.5107 20.9308 15.8802L22.7497 16.7118ZM26.699 11.5007C28.3768 10.1225 30.3647 9.0943 32.6783 8.42456L32.1222 6.50343C29.5718 7.24169 27.3357 8.38946 25.4295 9.95527L26.699 11.5007ZM32.7014 8.41758C35.0163 7.68656 37.5616 7.34587 40.346 7.40775L40.3905 5.40825C37.4149 5.34212 34.6482 5.70543 32.0991 6.51041L32.7014 8.41758ZM40.3257 7.40709C43.2317 7.53075 45.7966 8.08573 48.0353 9.05386L48.8292 7.21814C46.3319 6.13826 43.5208 5.54124 40.4108 5.4089L40.3257 7.40709ZM48.0565 9.06274C50.349 9.99211 52.0849 11.0528 53.3106 12.2201L54.6899 10.7719C53.2277 9.37923 51.2515 8.19989 48.808 7.20926L48.0565 9.06274ZM53.3495 12.2553C53.7176 12.5708 54.1458 13.0484 54.6315 13.7162L56.249 12.5398C55.7107 11.7996 55.1789 11.1892 54.651 10.7367L53.3495 12.2553ZM54.6663 13.7612C55.1865 14.397 55.5818 15.0502 55.8612 15.7206L57.7073 14.9514C57.3467 14.0858 56.846 13.267 56.2142 12.4948L54.6663 13.7612ZM55.8898 15.7832C56.2194 16.4424 56.3603 17.0257 56.3603 17.544H58.3603C58.3603 16.6543 58.1171 15.7656 57.6787 14.8888L55.8898 15.7832ZM56.3644 17.6345C56.3831 17.8408 56.3513 17.9695 56.3114 18.0542C56.2721 18.1378 56.1974 18.2374 56.0376 18.3439L57.1469 20.008C57.5631 19.7306 57.9044 19.3662 58.1211 18.9058C58.3372 18.4465 58.4014 17.9512 58.3561 17.4535L56.3644 17.6345ZM55.9521 18.4078C55.7932 18.5401 55.5292 18.656 55.0563 18.656V20.656C55.8633 20.656 56.6233 20.4519 57.2324 19.9442L55.9521 18.4078ZM55.0563 18.656C54.5541 18.656 54.0122 18.6002 53.4284 18.4834L53.0361 20.4446C53.7323 20.5838 54.4064 20.656 55.0563 20.656V18.656ZM53.5196 18.5062C52.9177 18.3256 52.3495 18.116 51.8144 17.8782L51.0021 19.7058C51.619 19.98 52.2668 20.2184 52.9449 20.4218L53.5196 18.5062ZM51.8939 17.9178C51.3412 17.6108 50.9472 17.3537 50.6889 17.1471L49.4396 18.7089C49.8213 19.0143 50.3233 19.3332 50.9226 19.6662L51.8939 17.9178ZM50.6935 17.1508C49.2476 15.9803 47.5416 15.0635 45.5902 14.3906L44.9383 16.2814C46.6989 16.8885 48.1929 17.6997 49.4351 18.7052L50.6935 17.1508ZM45.6299 14.4052C43.7648 13.6725 42.0221 13.255 40.4117 13.1849L40.3248 15.1831C41.6584 15.241 43.1797 15.5915 44.8986 16.2667L45.6299 14.4052ZM40.4016 13.1846C38.3979 13.1178 36.5886 13.3165 34.9891 13.8033L35.5714 15.7167C36.9159 15.3075 38.4986 15.1222 40.3349 15.1834L40.4016 13.1846ZM35.0278 13.7924C33.4534 14.2031 32.0817 14.8289 30.9363 15.688L32.1362 17.288C33.0388 16.6111 34.1631 16.0849 35.5327 15.7276L35.0278 13.7924ZM30.9116 15.7071C29.847 16.5587 29.0152 17.566 28.4338 18.7288L30.2227 19.6232C30.6653 18.738 31.3055 17.9533 32.1609 17.2689L30.9116 15.7071ZM28.4459 18.7054C27.8616 19.8009 27.5603 20.9536 27.5603 22.152H29.5603C29.5603 21.3024 29.7709 20.4711 30.2106 19.6466L28.4459 18.7054ZM27.5603 22.152C27.5603 24.2424 28.395 26.0647 29.9818 27.5794L31.3627 26.1326C30.1335 24.9593 29.5603 23.6456 29.5603 22.152H27.5603ZM29.9996 27.5959C31.4801 28.9419 33.1011 30.0236 34.8612 30.836L35.6993 29.02C34.1314 28.2964 32.6804 27.3301 31.3449 26.1161L29.9996 27.5959ZM34.8863 30.8471C36.677 31.6146 38.5318 32.414 40.4506 33.2456L41.2459 31.4104C39.3247 30.5779 37.4675 29.7774 35.6742 29.0089L34.8863 30.8471ZM40.4873 33.2606C42.4417 34.0171 44.3649 34.8684 46.257 35.8144L47.1515 34.0256C45.2036 33.0516 43.2228 32.1749 41.2092 31.3954L40.4873 33.2606ZM46.257 35.8144C48.1412 36.7565 49.9292 37.7918 51.6216 38.92L52.731 37.2559C50.9673 36.0802 49.1073 35.0035 47.1515 34.0256L46.257 35.8144ZM51.6216 38.92C53.2726 40.0208 54.704 41.3009 55.92 42.7602L57.4565 41.4798C56.1125 39.8671 54.5359 38.4592 52.731 37.2559L51.6216 38.92ZM55.9498 42.7943C57.2047 44.1688 58.1974 45.7887 58.9237 47.665L60.7888 46.943C59.9791 44.8513 58.8598 43.0152 57.4267 41.4457L55.9498 42.7943ZM58.9278 47.6754C59.6398 49.4556 60.0083 51.5335 60.0083 53.928H62.0083C62.0083 51.3305 61.6087 48.9924 60.7847 46.9326L58.9278 47.6754ZM60.0083 53.928C60.0083 55.8252 59.5942 57.7015 58.7529 59.5644L60.5756 60.3876C61.5263 58.2825 62.0083 56.1268 62.0083 53.928H60.0083ZM58.7581 59.5531C57.9186 61.3519 56.7143 63.0129 55.1311 64.5352L56.5174 65.9768C58.2622 64.2991 59.6179 62.4401 60.5704 60.3989L58.7581 59.5531ZM55.1311 64.5352C53.5674 66.0388 51.6271 67.2873 49.2922 68.2704L50.0683 70.1136C52.5974 69.0487 54.7531 67.6732 56.5174 65.9768L55.1311 64.5352ZM49.2833 68.2741C47.0521 69.239 44.4948 69.7625 41.595 69.8242L41.6375 71.8238C44.7537 71.7575 47.5724 71.193 50.0772 70.1099L49.2833 68.2741ZM41.5877 69.8244C39.4345 69.8859 37.1774 69.671 34.8143 69.1735L34.4022 71.1305C36.9031 71.657 39.318 71.8901 41.6448 71.8236L41.5877 69.8244ZM34.8143 69.1735C32.4761 68.6812 30.3328 67.8837 28.3785 66.7844L27.398 68.5276C29.5397 69.7323 31.8764 70.5988 34.4022 71.1305L34.8143 69.1735ZM28.3785 66.7844C26.4329 65.69 24.7318 64.2929 23.2715 62.5892L21.753 63.8908C23.3647 65.7711 25.2476 67.318 27.398 68.5276L28.3785 66.7844ZM23.2957 62.6186C21.9458 60.9165 21.0793 58.8463 20.7177 56.3752L18.7388 56.6648C19.1452 59.4417 20.1347 61.8515 21.7288 63.8614L23.2957 62.6186ZM20.7195 56.3878C20.6052 55.5311 20.637 54.7572 20.7986 54.0569L18.8499 53.6071C18.6275 54.5708 18.5953 55.5889 18.737 56.6522L20.7195 56.3878ZM20.7986 54.0569C20.9696 53.316 21.2169 52.7299 21.5203 52.2747L19.8562 51.1653C19.3916 51.8621 19.0629 52.684 18.8499 53.6071L20.7986 54.0569ZM21.5457 52.2345C21.8828 51.6727 22.2133 51.311 22.5175 51.0937L21.355 49.4663C20.7632 49.889 20.2617 50.4873 19.8308 51.2055L21.5457 52.2345ZM22.5363 51.08C22.947 50.7719 23.2199 50.704 23.3763 50.704V48.704C22.6366 48.704 21.9495 49.0201 21.3363 49.48L22.5363 51.08ZM23.3763 50.704C23.4137 50.704 23.6107 50.7225 23.9677 51.1305L25.4728 49.8135C24.9338 49.1975 24.2348 48.704 23.3763 48.704V50.704ZM24.0131 51.1791C24.376 51.542 24.6998 51.9951 24.9778 52.5512L26.7667 51.6568C26.4047 50.9329 25.9605 50.298 25.4274 49.7649L24.0131 51.1791ZM24.9981 52.5896C25.2906 53.1161 25.5207 53.6356 25.6916 54.1482L27.5889 53.5158C27.3758 52.8764 27.0939 52.2439 26.7464 51.6184L24.9981 52.5896ZM25.7264 54.2381C25.9831 54.8156 26.1829 55.2494 26.3218 55.5272L28.1107 54.6328C27.9936 54.3986 27.8094 54.0004 27.5541 53.4259L25.7264 54.2381ZM26.2992 55.4787C26.9892 57.0658 27.9289 58.4285 29.1229 59.5522L30.4936 58.0958C29.5116 57.1715 28.7233 56.0382 28.1333 54.6813L26.2992 55.4787ZM29.1229 59.5522C30.271 60.6328 31.4959 61.5193 32.7985 62.2049L33.73 60.4351C32.6006 59.8407 31.5215 59.0632 30.4936 58.0958L29.1229 59.5522ZM32.817 62.2144C34.1632 62.8875 35.5474 63.3944 36.9686 63.7328L37.4319 61.7872C36.1651 61.4856 34.9253 61.0325 33.7115 60.4256L32.817 62.2144ZM37.0131 63.7423C38.4185 64.01 39.7189 64.1162 40.907 64.0463L40.7895 62.0497C39.8016 62.1078 38.67 62.022 37.3874 61.7777L37.0131 63.7423ZM40.8917 64.0471C42.4528 63.9792 43.9529 63.7072 45.3885 63.2287L44.756 61.3313C43.5036 61.7488 42.1877 61.9888 40.8048 62.0489L40.8917 64.0471ZM45.3885 63.2287C46.8236 62.7503 48.1056 62.095 49.2243 61.256L48.0243 59.656C47.0949 60.353 46.0089 60.9137 44.756 61.3313L45.3885 63.2287ZM49.2548 61.2321C50.3864 60.3127 51.2775 59.2095 51.9187 57.9272L50.1298 57.0328C49.619 58.0545 48.9101 58.9353 47.9937 59.6799L49.2548 61.2321ZM51.9092 57.9457C52.6301 56.576 52.9843 55.0704 52.9843 53.448H50.9843C50.9843 54.7696 50.6984 55.952 50.1393 57.0143L51.9092 57.9457ZM52.9843 53.448C52.9843 51.5603 52.2238 49.7734 50.8325 48.1038L49.296 49.3842C50.4647 50.7866 50.9843 52.1357 50.9843 53.448H52.9843ZM50.8604 48.1389C49.5723 46.444 47.9248 44.9025 45.9337 43.5088L44.7868 45.1472C46.6357 46.4415 48.1242 47.844 49.2681 49.3491L50.8604 48.1389ZM45.9468 43.5181C44.0354 42.134 41.9011 40.8873 39.5473 39.7757L38.6932 41.5842C40.9474 42.6487 42.9731 43.834 44.7737 45.1379L45.9468 43.5181ZM39.5776 39.7907C37.3082 38.6236 35.1286 37.6471 33.0394 36.8637L32.3371 38.7363C34.3439 39.4889 36.4523 40.4324 38.6629 41.5693L39.5776 39.7907ZM33.0539 36.8692C29.586 35.5069 26.7713 33.663 24.5822 31.3523L23.1303 32.7277C25.5492 35.281 28.6225 37.2771 32.3226 38.7307L33.0539 36.8692ZM24.5911 31.3617C22.438 29.0293 21.4003 26.4812 21.4003 23.688H19.4003C19.4003 27.0388 20.6665 30.0587 23.1214 32.7183L24.5911 31.3617Z" fill="black"/>
<path d="M35.3684 22L37.3253 24.2534C37.6519 24.6295 37.6519 25.1887 37.3253 25.5648L35.3684 27.8182M44.6316 22L42.6747 24.2534C42.3481 24.6295 42.3481 25.1887 42.6747 25.5648L44.6316 27.8182M32 51.0909C33.2926 51.8351 34.0271 52.2581 35.3003 52.9911C35.3454 53.017 35.393 53.0397 35.4415 53.0584C36.325 53.3975 36.8636 53.6042 37.7216 53.9336C37.836 53.9775 37.9576 54 38.0801 54H41.9199C42.0424 54 42.164 53.9775 42.2784 53.9336C43.1364 53.6042 43.675 53.3975 44.5585 53.0584C44.607 53.0397 44.6546 53.017 44.6997 52.9911C45.9729 52.2581 46.7074 51.8351 48 51.0909" stroke="black" stroke-width="4"/>
</svg>
